<svg xmlns="http://www.w3.org/2000/svg" viewBox="0 0 700 220" role="img" aria-label="Vantage Logic">
  <g fill="#ffffff" stroke="#ffffff">
    <!-- Emblem -->
    <g transform="translate(10 10)">
      <circle cx="100" cy="100" r="85" fill="none"
              stroke-width="5" pathLength="140"
              stroke-dasharray="8 2" stroke-linecap="butt"
              transform="rotate(-90 100 100)"/>
      <g transform="rotate(55.29 114.04 22.63)"><rect x="111.54" y="13.63" width="5" height="18" rx="1.5"/></g>
      <g transform="rotate(81.00 146.22 36.38)"><rect x="143.72" y="27.38" width="5" height="18" rx="1.5"/></g>
      <g transform="rotate(106.71 169.25 62.74)"><rect x="166.75" y="53.74" width="5" height="18" rx="1.5"/></g>
      <g transform="rotate(132.43 178.56 96.47)"><rect x="176.06" y="87.47" width="5" height="18" rx="1.5"/></g>
      <g transform="rotate(158.14 172.31 130.91)"><rect x="169.81" y="121.91" width="5" height="18" rx="1.5"/></g>
      <g transform="rotate(183.86 151.74 159.22)"><rect x="149.24" y="150.22" width="5" height="18" rx="1.5"/></g>
      <g transform="rotate(209.57 120.92 175.80)"><rect x="118.42" y="166.80" width="5" height="18" rx="1.5"/></g>
      <g transform="rotate(235.29 85.96 177.37)"><rect x="83.46" y="168.37" width="5" height="18" rx="1.5"/></g>
      <g transform="rotate(261.00 53.78 163.62)"><rect x="51.28" y="154.62" width="5" height="18" rx="1.5"/></g>
      <g transform="rotate(286.71 30.75 137.26)"><rect x="28.25" y="128.26" width="5" height="18" rx="1.5"/></g>
      <g transform="rotate(312.43 21.44 103.53)"><rect x="18.94" y="94.53" width="5" height="18" rx="1.5"/></g>
      <g transform="rotate(338.14 27.69 69.09)"><rect x="25.19" y="60.09" width="5" height="18" rx="1.5"/></g>
      <g transform="rotate(363.86 48.26 40.78)"><rect x="45.76" y="31.78" width="5" height="18" rx="1.5"/></g>
      <g transform="rotate(389.57 79.08 24.20)"><rect x="76.58" y="15.20" width="5" height="18" rx="1.5"/></g>
      <g transform="rotate(135.00 100.00 60.00)"><rect x="97.50" y="54.00" width="5" height="12" rx="1.5"/></g>
      <g transform="rotate(165.00 120.00 65.36)"><rect x="117.50" y="59.36" width="5" height="12" rx="1.5"/></g>
      <g transform="rotate(195.00 134.64 80.00)"><rect x="132.14" y="74.00" width="5" height="12" rx="1.5"/></g>
      <g transform="rotate(225.00 140.00 100.00)"><rect x="137.50" y="94.00" width="5" height="12" rx="1.5"/></g>
      <g transform="rotate(255.00 134.64 120.00)"><rect x="132.14" y="114.00" width="5" height="12" rx="1.5"/></g>
      <g transform="rotate(285.00 120.00 134.64)"><rect x="117.50" y="128.64" width="5" height="12" rx="1.5"/></g>
      <g transform="rotate(315.00 100.00 140.00)"><rect x="97.50" y="134.00" width="5" height="12" rx="1.5"/></g>
      <g transform="rotate(345.00 80.00 134.64)"><rect x="77.50" y="128.64" width="5" height="12" rx="1.5"/></g>
      <g transform="rotate(375.00 65.36 120.00)"><rect x="62.86" y="114.00" width="5" height="12" rx="1.5"/></g>
      <g transform="rotate(405.00 60.00 100.00)"><rect x="57.50" y="94.00" width="5" height="12" rx="1.5"/></g>
      <g transform="rotate(435.00 65.36 80.00)"><rect x="62.86" y="74.00" width="5" height="12" rx="1.5"/></g>
      <g transform="rotate(465.00 80.00 65.36)"><rect x="77.50" y="59.36" width="5" height="12" rx="1.5"/></g>
    </g>
  </g>

  <!-- Wordmark -->
  <g fill="#ffffff" font-family="Inter, 'Inter Variable', system-ui, -apple-system, Arial, sans-serif" font-weight="900" letter-spacing="-3">
    <text x="230" y="95"  font-size="100" dominant-baseline="alphabetic">VANTAGE</text>
    <text x="230" y="200" font-size="100" dominant-baseline="alphabetic">LOGIC<tspan font-size="40" baseline-shift="super">®</tspan></text>
  </g>
</svg>